<?xml version="1.0" standalone="no"?>
<!DOCTYPE svg PUBLIC "-//W3C//DTD SVG 20010904//EN"
 "http://www.w3.org/TR/2001/REC-SVG-20010904/DTD/svg10.dtd">
<svg version="1.0" xmlns="http://www.w3.org/2000/svg"
 width="280.000000pt" height="280.000000pt" viewBox="0 0 280.000000 280.000000"
 preserveAspectRatio="xMidYMid meet">
<metadata>
Created by potrace 1.11, written by Peter Selinger 2001-2013
</metadata>
<g transform="translate(0.000000,280.000000) scale(0.100000,-0.100000)"
fill="#000000" stroke="none">
<path d="M1077 2334 c-1 -1 -18 -3 -37 -5 -19 -2 -39 -5 -45 -8 -5 -2 -22 -6
-39 -8 -16 -2 -34 -7 -40 -12 -6 -5 -19 -7 -29 -6 -9 2 -15 0 -12 -5 2 -4 -20
-6 -50 -4 -30 2 -57 -1 -60 -6 -3 -5 -14 -7 -25 -5 -11 2 -20 -1 -20 -6 0 -6
-4 -8 -9 -4 -14 8 -192 -86 -184 -98 3 -6 1 -7 -5 -3 -6 3 -36 -19 -67 -49
-32 -30 -61 -55 -66 -55 -5 0 -8 -3 -7 -8 2 -4 -20 -31 -49 -60 -28 -28 -49
-52 -46 -52 3 0 -14 -18 -37 -40 -23 -22 -46 -37 -51 -34 -5 3 -9 1 -9 -3 0
-5 -14 -14 -31 -20 -20 -8 -28 -16 -23 -24 4 -8 3 -9 -4 -5 -11 7 -72 -49 -72
-66 0 -5 -5 -6 -10 -3 -6 3 -10 0 -10 -7 0 -7 -9 -19 -19 -25 -19 -12 -20 -33
-20 -862 l0 -850 1399 0 1399 0 0 570 -1 570 -55 -53 c-30 -29 -59 -52 -64
-50 -5 1 -9 -2 -9 -7 0 -10 -85 -73 -112 -84 -10 -3 -18 -11 -18 -17 0 -6 -4
-8 -10 -5 -5 3 -10 1 -10 -5 0 -6 -4 -8 -10 -5 -5 3 -10 1 -10 -5 0 -6 -4 -8
-10 -5 -5 3 -10 1 -10 -5 0 -7 -7 -9 -16 -6 -8 3 -13 2 -10 -3 3 -5 -6 -12
-19 -15 -16 -4 -23 -11 -19 -18 4 -6 3 -8 -3 -5 -6 4 -27 -3 -49 -13 -21 -11
-44 -20 -51 -20 -7 0 -13 -4 -13 -8 0 -4 -8 -8 -17 -8 -10 -1 -45 -9 -78 -19
-33 -9 -72 -18 -87 -19 -14 0 -24 -4 -22 -7 4 -7 -7 -8 -103 -11 -34 -1 -60
-5 -58 -8 2 -3 -7 -5 -20 -5 -13 0 -21 3 -19 6 2 4 -5 9 -16 12 -13 3 -18 1
-14 -5 5 -7 -3 -8 -22 -3 -16 4 -42 9 -59 10 -16 2 -30 4 -30 5 0 1 -12 3 -26
4 -14 2 -32 7 -39 11 -8 5 -28 10 -44 12 -17 2 -34 9 -38 16 -4 6 -8 9 -8 4 0
-4 -18 2 -40 13 -22 11 -40 17 -40 13 0 -5 -4 -3 -8 2 -10 14 -66 50 -70 44
-2 -2 -8 4 -13 14 -6 9 -17 17 -25 17 -8 0 -13 4 -10 8 3 5 -6 15 -19 22 -13
7 -22 17 -19 22 3 4 -1 8 -8 8 -7 0 -26 18 -42 40 -17 22 -33 40 -38 40 -4 0
-8 9 -8 20 0 11 -4 20 -10 20 -5 0 -12 11 -16 25 -3 14 -9 25 -13 25 -8 0 -36
71 -33 83 1 4 -2 7 -6 7 -5 0 -15 25 -22 55 -7 30 -16 55 -20 55 -3 0 -6 12
-7 28 -2 56 -9 107 -16 119 -4 6 -3 14 3 18 5 3 10 17 10 30 0 13 5 27 11 30
6 4 8 13 5 21 -3 8 1 17 9 20 8 4 13 9 11 13 -3 4 18 35 45 70 41 54 49 59 47
37 -1 -14 -6 -26 -11 -26 -4 0 -5 -4 -2 -10 3 -5 0 -10 -7 -10 -10 0 -10 -2 0
-9 8 -4 13 -11 13 -15 -1 -3 -1 -9 -1 -12 0 -3 16 4 35 16 26 16 39 19 52 11
10 -6 12 -11 6 -11 -7 0 -13 -7 -13 -16 0 -8 -4 -13 -9 -10 -12 8 -21 -18 -11
-33 9 -16 13 -15 50 4 17 9 28 20 25 25 -4 6 -1 10 4 10 6 0 11 5 11 11 0 6 6
17 14 25 12 12 17 11 36 -4 21 -17 22 -21 9 -55 -7 -20 -17 -37 -23 -37 -14 0
2 -14 19 -16 17 -3 75 51 75 70 0 15 41 53 56 52 6 -1 18 -9 28 -18 10 -10 22
-18 27 -18 5 0 9 -7 9 -16 0 -8 6 -21 13 -28 10 -11 15 -10 25 0 13 14 14 84
1 84 -4 0 -11 10 -15 23 -12 35 -13 47 -3 47 5 0 8 5 6 11 -1 6 6 13 16 14 9
2 17 -1 17 -6 0 -6 5 -7 10 -4 6 3 10 2 10 -3 0 -5 12 -17 26 -27 15 -9 23
-12 20 -6 -4 6 -3 11 3 11 5 0 9 9 8 20 -1 11 -5 20 -9 20 -4 0 -8 9 -8 20 0
11 -6 20 -14 20 -8 0 -16 6 -19 14 -3 8 -14 14 -24 14 -10 -1 -29 2 -42 6 -18
6 -22 5 -15 -5 6 -12 5 -12 -8 -1 -9 7 -31 13 -49 12 -51 0 -69 2 -69 11 0 4
-9 6 -20 4 -11 -2 -20 0 -20 6 0 5 -3 8 -7 8 -20 -3 -34 3 -58 26 -25 26 -33
41 -15 30 6 -3 10 3 10 15 0 11 7 23 15 26 19 8 19 23 1 60 -8 16 -16 35 -18
43 -3 15 29 24 38 10 3 -5 10 -7 15 -4 8 6 11 -2 8 -21 -1 -11 24 -22 38 -17
19 7 14 61 -11 103 -11 19 -23 36 -27 38 -4 2 -23 16 -41 32 -30 27 -48 35
-70 31 -5 0 -8 3 -8 8 0 5 -25 8 -56 7 -31 0 -58 2 -61 7 -2 4 -9 4 -15 1 -6
-4 -14 -1 -18 5 -4 7 -17 13 -28 14 -12 1 -22 4 -22 8 0 6 -78 18 -83 13z"/>
</g>
</svg>
